<svg width="196" height="157" viewBox="0 0 196 157" fill="none" xmlns="http://www.w3.org/2000/svg">
<path d="M98 98L71.5 140.4L98 156.962L124.5 140.4L98 98ZM100 50C100 22.3858 77.6142 0 50 0C22.3858 0 0 22.3858 0 50H100ZM196 50C196 22.3858 173.614 1.90735e-05 146 0C118.386 -1.90735e-05 96 22.3857 96 50L196 50ZM98 98C124.5 55.6001 124.505 55.6035 124.511 55.6067C124.512 55.6077 124.517 55.6108 124.52 55.6127C124.526 55.6165 124.532 55.6198 124.536 55.6228C124.545 55.6286 124.552 55.6326 124.556 55.635C124.563 55.6397 124.56 55.6376 124.546 55.6288C124.518 55.6112 124.448 55.567 124.339 55.4973C124.12 55.3579 123.746 55.1181 123.239 54.7878C122.222 54.1248 120.693 53.1123 118.826 51.8292C115.017 49.2101 110.17 45.7146 105.53 41.9443C100.601 37.9394 97.3332 34.7723 95.7456 32.887C94.9747 31.9715 95.5455 32.4615 96.4935 34.2983C97.299 35.859 100 41.4786 100 50H0C0 73.6861 13.9324 90.9807 19.2544 97.3005C26.6668 106.103 35.3994 113.811 42.4704 119.556C49.83 125.535 56.983 130.665 62.1736 134.233C64.8072 136.044 67.0277 137.516 68.6355 138.564C69.4413 139.089 70.0987 139.511 70.5831 139.82C70.8254 139.975 71.025 140.101 71.1787 140.198C71.2556 140.246 71.321 140.288 71.3747 140.321C71.4015 140.338 71.4254 140.353 71.4463 140.366C71.4568 140.373 71.4665 140.379 71.4754 140.385C71.4799 140.387 71.4861 140.391 71.4883 140.393C71.4943 140.396 71.5 140.4 98 98ZM98 98C124.5 140.4 124.506 140.396 124.512 140.393C124.514 140.391 124.52 140.387 124.525 140.385C124.533 140.379 124.543 140.373 124.554 140.366C124.575 140.353 124.598 140.338 124.625 140.321C124.679 140.288 124.744 140.246 124.821 140.198C124.975 140.101 125.175 139.975 125.417 139.82C125.901 139.511 126.559 139.089 127.364 138.564C128.972 137.516 131.193 136.044 133.826 134.233C139.017 130.665 146.17 125.535 153.53 119.556C160.601 113.811 169.333 106.103 176.746 97.3005C182.068 90.9807 196 73.6862 196 50L96 50C96 41.4786 98.701 35.859 99.5065 34.2983C100.455 32.4615 101.025 31.9715 100.254 32.887C98.6668 34.7723 95.3994 37.9394 90.4704 41.9443C85.83 45.7146 80.983 49.2101 77.1736 51.8292C75.3072 53.1123 73.7777 54.1248 72.7605 54.7878C72.2538 55.1181 71.8799 55.3579 71.6612 55.4973C71.552 55.567 71.482 55.6112 71.4541 55.6288C71.4401 55.6376 71.4367 55.6397 71.4443 55.635C71.448 55.6326 71.4545 55.6286 71.4638 55.6228C71.4685 55.6198 71.4738 55.6165 71.4798 55.6127C71.4828 55.6108 71.4879 55.6077 71.4894 55.6067C71.4946 55.6035 71.5 55.6001 98 98Z" fill="black"/>
</svg>
